# xmcd CD database file
#
# Track frame offsets:
#	150
#	26444
#	38823
#	50294
#	63273
#	74399
#	90316
#	102446
#	115184
#	134104
#	145963
#	163792
#
# Disc length: 2423 seconds
#
# Revision: 0
# Processed by: cddbd v1.5.1PL0 Copyright (c) Steve Scherf et al.
# Submitted via: CDex 1.51
#
DISCID=a609750c
DTITLE=Graeme Hugo - Raggedy Ann
DYEAR=1900
DGENRE=Country
TTITLE0=Raggedy Ann
TTITLE1=Swinging Doors
TTITLE2=Six Days On The Road
TTITLE3=Seven Spanish Angels
TTITLE4=Country Roads
TTITLE5=Just A Closer Walk With Thee
TTITLE6=Lights On The Hill
TTITLE7=Mamma [don't let your babies grow up ....
TTITLE8=Back Home Again
TTITLE9=Baby Blue
TTITLE10=Somedays Are Diamonds
TTITLE11=How Great Thou Art
EXTD=
EXTT0=
EXTT1=
EXTT2=
EXTT3=
EXTT4=
EXTT5=
EXTT6=
EXTT7=
EXTT8=
EXTT9=
EXTT10=
EXTT11=
PLAYORDER=
